<?xml version="1.0" encoding="UTF-8" standalone="no"?>
<!DOCTYPE svg PUBLIC "-//W3C//DTD SVG 1.1//EN" "http://www.w3.org/Graphics/SVG/1.1/DTD/svg11.dtd">
<svg width="100%" height="100%" viewBox="0 0 649 642" version="1.1" xmlns="http://www.w3.org/2000/svg" xmlns:xlink="http://www.w3.org/1999/xlink" xml:space="preserve" xmlns:serif="http://www.serif.com/" style="fill-rule:evenodd;clip-rule:evenodd;stroke-linecap:round;stroke-linejoin:round;stroke-miterlimit:1.5;">
    <g transform="matrix(1,0,0,1,-1975.952003,-1380.556549)">
        <g transform="matrix(0.801082,-0.08971,0.069297,0.6188,335.864662,780.792766)">
            <path d="M2698.532,1797.357C2698.532,2063.469 2532.968,2272.259 2306.174,2272.259C2250.185,2272.259 2170.808,2259.271 2132.034,2260.441C2109.534,2261.12 2089.811,2274.049 2074.334,2282.114C2063.244,2287.892 2037.678,2301.634 2025.758,2298.558C1980.043,2286.762 2037.493,2254.986 2023.283,2201.828C2016.885,2177.896 2003.714,2153.84 1993.496,2131.095C1983.537,2108.927 1961.974,2065.355 1961.974,2065.355C1961.974,2065.355 1895.252,1927.773 1895.252,1790.097C1895.252,1523.985 2079.38,1307.936 2306.174,1307.936C2532.968,1307.936 2698.532,1531.245 2698.532,1797.357Z" style="fill:none;stroke:white;stroke-width:1.39px;"/>
        </g>
    </g>
</svg>
